<?xml version="1.0" encoding="utf-8"?>
<svg viewBox="0 0 100 125" x="0px" xmlns="http://www.w3.org/2000/svg" y="0px"><path d="M50 4.25c-26 0-38.64 15-38.64 45.75S24 95.75 50 95.75 88.64 80.79 88.64 50 76 4.25 50 4.25zm34.68 65.82l-8.43.43 10.86-17.78a69.24 69.24 0 0 1-2.43 17.35zM12.89 52.72L23.75 70.5l-8.43-.43a69.24 69.24 0 0 1-2.43-17.35zm2.43-22.79l8.43-.43-10.86 17.78a69.24 69.24 0 0 1 2.43-17.35zm71.79 17.35L76.25 29.5l8.43.43a69.24 69.24 0 0 1 2.43 17.35zM73.25 50l2.12-19L87 50 75.35 69zm-6.14 22L50 78.8 32.89 72l-4.62-22 4.62-21.95L50 21.2l17.11 6.85 4.62 22zm-28.6 14.73l-5-12.9 14.88 6zM50 80.52l10.47 7.33L50 94.13l-10.47-6.28zm11.49 6.21l-9.92-6.94 14.88-6zM24.63 69.05L13 50l11.63-19 2.12 19zm3.1-23.78L26 29.31l5.32-.89zm0 9.46l3.55 16.85-5.28-.89zm33.76-41.46l5 12.9-14.88-6zM50 19.48l-10.47-7.33L50 5.87l10.47 6.28zm-11.49-6.21l9.92 6.94-14.88 6zm33.76 32l-3.55-16.85 5.32.89zm0 9.46l1.77 16-5.32.89zm1.92-26.92l-5.88-1L63 13l12.26 1.2zM63.36 11.5l2.73-3.11a29.24 29.24 0 0 1 7.47 4.13zm-1.67-.36l-8.86-5.32a44.13 44.13 0 0 1 11.75 2zm-23.38 0l-2.89-3.3a44.13 44.13 0 0 1 11.75-2zm-1.67.36l-10.2 1a29.24 29.24 0 0 1 7.47-4.13zM37 13l-5.31 13.83-5.88 1-1.07-13.63zM25.81 72.19l5.88 1L37 87l-12.26-1.2zM36.64 88.5l-2.73 3.11a29.24 29.24 0 0 1-7.47-4.13zm1.67.36l8.86 5.32a44.13 44.13 0 0 1-11.75-2zm23.38 0l2.89 3.3a44.13 44.13 0 0 1-11.75 2zm1.67-.36l10.2-1a29.24 29.24 0 0 1-7.47 4.13zM63 87l5.33-13.86 5.88-1 1.05 13.66zm21.21-58.6l-8.53-.4 1-12.67a33.61 33.61 0 0 1 7.53 13.07zM23.32 15.3l1 12.67-8.53.43a33.61 33.61 0 0 1 7.53-13.1zm-7.53 56.3l8.53.43-1 12.67a33.61 33.61 0 0 1-7.53-13.1zm60.89 13.1l-1-12.7 8.53-.43a33.61 33.61 0 0 1-7.53 13.13z"/></svg>