<?xml version="1.0" encoding="utf-8"?>
<svg viewBox="0 0 100 125" x="0px" xmlns="http://www.w3.org/2000/svg" y="0px"><path d="M82.5 17.5l-13-13-.5-.25H31.05l-.53.22-13 13-.22.53v64l.22.53 13 13 .53.22H69l.53-.22 13-13 .22-.53V18zm-11 4.06l-6.07-6.08.85-2.05 7.27 7.28zm-7.27 62H35.78l-6.35-6.34V22.75l6.35-6.34h28.44l6.35 6.34v54.5zM64 14.91H36l-.85-2.05h29.73zm-29.45.57l-6.07 6.08-2.05-.85 7.27-7.28zm-6.65 7.46v54.12l-2.05.85V22.09zm.58 55.5l6.07 6.08-.85 2-7.27-7.28zM36 85.09h28l.85 2H35.12zm29.45-.57l6.07-6.08 2.05.85-7.27 7.28zm6.65-7.46V22.94l2.05-.85v55.82zm3-57l-8.15-8.15.85-2 9.36 9.35zm-9.6-8.7h-31l-.85-2.06h32.7zm-32.39.57L25 20.08l-2.06-.85 9.36-9.35zm-8.73 9.54v57.06l-2.05.85V20.62zM25 79.92l8.15 8.15-.85 2.05-9.4-9.35zm9.54 8.72h31l.85 2.06H33.65zm32.39-.57L75 79.92l2.06.85-9.36 9.35zm8.73-9.54V21.47l2-.85v58.76zm3-59.92L68.36 8.38l.85-2.06 11.44 11.44zM67 7.8H33l-.85-2h35.67zm-35.33.58L21.4 18.61l-2-.85L30.79 6.32zM20.83 20v60l-2 .85v-61.7zm.57 61.39l10.24 10.23-.85 2.06-11.44-11.44zM33 92.2h34l.85 2H32.18zm35.33-.58L78.6 81.39l2.05.85-11.44 11.44zM79.17 80V20l2-.85v61.7z"/></svg>