<?xml version="1.0" encoding="utf-8"?>
<svg viewBox="0 0 100 125" x="0px" xmlns="http://www.w3.org/2000/svg" y="0px"><path d="M87.9 15.65a26.84 26.84 0 0 0-37.9 0 26.8 26.8 0 0 0-37.91 37.9L49.46 92h1.08L87.9 53.56a26.81 26.81 0 0 0 0-37.91zm-6.62 11.9l-11.8-4.28L65.37 15 82 13.36zM38.71 55.23L41.91 68l-14.84-1.47V51zM30.3 38.75l-10.85-9.86 10.85-3.95zm5.91-23.52L47.12 17l-14.54 5.5zm27.58 0l3.63 7.27L52.88 17zm-3.72 39L50 63.13l-10.07-9-8.13-13.88V24.39L50 17.57l18.2 6.82v15.86zm-3.43 13.43l-5.42-3.61 8.12-7.22zm-13.28 0l-2.7-10.83 8.12 7.22zM31.1 42l6.55 11.23-10.29-3.73zM50 65l6.22 4.15L50 89l-6.22-19.82zm11.29-9.8L72.93 51v15.53L58.09 68zm1.06-2L68.9 42l3.74 7.48zm18.2-24.36L69.7 38.75V24.94zm-17-15.14l-11.34 1.94a25.18 25.18 0 0 1 11.94-5.87zm-27.1 0l-.6-4a25.18 25.18 0 0 1 11.94 5.87zm-5.93 9.52l-11.8 4.28L18 13.36 34.63 15zm-.39 17.35L26 49 7.42 42l10.67-12.32zm-4.56 24.68L14.78 54.16l10.79-3.23zm16.08 4.25l-4.5 7.66-8.74-9zm1 1.2l5.65 18-10.07-10.43zm14.62 0l4.46 7.57-10.07 10.39zm1-1.2l13.24-1.33-8.74 9zm16.16-18.57l10.79 3.23-10.79 11.09zm-4.56-10.31l12-10.94L92.58 42l-18.53 7zm23.64.11L83.19 28.87l9-4.22a25.53 25.53 0 0 1 1.29 16.08zm-1.92-17.44l-8.8 4.11.67-13.51a24.9 24.9 0 0 1 3.38 2.82 25.76 25.76 0 0 1 4.75 6.58zM80.33 12L65.1 13.55l.6-4A25.39 25.39 0 0 1 80.33 12zM31.05 9.31a25.23 25.23 0 0 1 3.25.22l.6 4L19.67 12a25.39 25.39 0 0 1 11.38-2.69zm-17.89 7.4a24.9 24.9 0 0 1 3.38-2.82l.67 13.51-8.8-4.11a25.76 25.76 0 0 1 4.75-6.58zm-5.38 7.94l9 4.22L6.49 40.73a25.53 25.53 0 0 1 1.29-16.08zm-.41 18.88L24 49.84 13.6 53l-.44-.45a25.16 25.16 0 0 1-5.79-9.02zm79.46 9l-.43.47L76 49.84l16.61-6.31a25.19 25.19 0 0 1-5.78 8.97z"/></svg>