<?xml version="1.0" encoding="utf-8"?>
<svg viewBox="0 0 100 125" x="0px" xmlns="http://www.w3.org/2000/svg" y="0px"><path d="M50.47 4.41h-.94C35.48 15.65 26.75 33.12 26.75 50s8.73 34.35 22.78 45.59h.94C64.52 84.35 73.25 66.88 73.25 50S64.52 15.65 50.47 4.41zM50 76.26l-6.45-5.37L37.75 50l5.8-20.89L50 23.74l6.45 5.37L62.25 50l-5.8 20.89zm-1-53.6l-4.91 4.09 1.63-8.18zm-6.8 5.65l-8 8 .15-10.55 9.8-7.18zM37 52.7l4.46 16.07-7.14-7.14zm0-5.4l-2.68-8.93 7.14-7.14zm-.81 2.7l-2.94 9.82L28.34 50l4.91-9.82zm6 21.69l1.95 9.72-9.8-7.18-.14-10.55zm3.48 9.74l-1.63-8.18L49 77.34zM63.05 52.7l2.68 8.93-7.14 7.14zm0-5.4l-4.46-16.07 7.14 7.14zm-5.25-19l-1.95-9.72 9.8 7.18.15 10.55zm-3.48-9.74L56 26.75l-5-4.09zM56 73.25l-1.63 8.18L51 77.34zm1.85-1.56l8-8-.15 10.55-9.8 7.18zm6-21.69l2.94-9.82L71.66 50l-4.91 9.82zm3.78-11.51L70 37.27a52.38 52.38 0 0 1 1.57 9.27zM67.31 37l-.12-8a59.69 59.69 0 0 1 2.44 6.82zM56 16.81l2.62-2.12a62 62 0 0 1 5.49 8.07zm-6 4.75l-3.88-4.85L50 7l3.88 9.69zm-14.08 1.2a62 62 0 0 1 5.49-8.07L44 16.81zM32.69 37l-2.32-1.2a59.69 59.69 0 0 1 2.44-6.8zm-.28 1.54l-4 8A52.38 52.38 0 0 1 30 37.27zm0 23L30 62.73a52.38 52.38 0 0 1-1.57-9.27zm.28 1.54l.12 8a59.69 59.69 0 0 1-2.44-6.82zM44 83.19l-2.62 2.12a62 62 0 0 1-5.49-8.07zm6-4.75l3.88 4.85L50 93l-3.88-9.69zm14.08-1.2a62 62 0 0 1-5.49 8.07L56 83.19zm3.23-14.19l2.32 1.15a59.69 59.69 0 0 1-2.44 6.8zm.28-1.54l4-8A52.38 52.38 0 0 1 70 62.73zm-10-48l-2.57 2.09-3.19-8.05a59.58 59.58 0 0 1 5.8 5.98zm-9.46-6l-3.23 8.07-2.57-2.09a59.58 59.58 0 0 1 5.84-5.94zm-5.8 78.92l2.57-2.09 3.23 8.07a59.58 59.58 0 0 1-5.76-5.94zm9.46 6l3.23-8.07 2.57 2.09a59.58 59.58 0 0 1-5.76 6z"/></svg>