<?xml version="1.0" encoding="utf-8"?>
<svg viewBox="0 0 100 125" x="0px" xmlns="http://www.w3.org/2000/svg" y="0px"><path d="M50 4.25C28.59 4.25 17.28 15.57 17.28 37c0 31.79 31.92 58.35 32.24 58.61h1c.28-.29 32.2-26.85 32.2-58.61C82.72 15.57 71.41 4.25 50 4.25zm0 66.05L37.65 59.07 32.43 38.2l5.12-13.67L50 20l12.45 4.54 5.12 13.66-5.22 20.87zM36.29 59.87l3.1 15.53-12.32-9.62V51.67zM31.64 36L27.4 24.7h8.49zm-.2 4.42l4.22 16.88-8.43-7.49zM41.05 76l-2.89-14.44 10.6 9.64zm18-60.51l2.69 7.16-9.84-3.56zM50 18.36l-8.21-4.09L50 6.06l8.21 8.21zm-9.06-2.84l7.16 3.57-9.85 3.59zm27.62 24.92l4.21 9.37-8.43 7.49zm-.2-4.44l-4.25-11.3h8.49zm-6.52 25.56L59 76l-7.76-4.8zm1.87-1.69l9.22-8.2v14.11L60.61 75.4zm5.46-21.74l4.7-12.55L81.09 37 73.8 48.42zM63.55 23.2l-3.12-8.31 9.06-3.75 3.22 12.06zm-3.9-9.61l-7.81-7.81C58.44 6 64 7.42 68.38 10zm-19.3 0L31.62 10C36 7.42 41.56 6 48.16 5.78zm-.78 1.3l-3.12 8.31h-9.19l3.25-12.06zM26.14 25.62l4.69 12.51-4.63 10.29L18.92 37zm-1 24l-4.36 1.31a53.14 53.14 0 0 1-1.94-11.21zm.43 1.38v12a69.72 69.72 0 0 1-4.36-10.7zm13.72 26.22l-3 2.28A102.7 102.7 0 0 1 29 69.2zM50 72.2l8.48 5.3L50 93.41 41.52 77.5zm21-3a102.7 102.7 0 0 1-7.25 10.3l-3-2.28zM74.43 51l4.36 1.31A69.72 69.72 0 0 1 74.43 63zm.42-1.44l6.3-9.9a53.14 53.14 0 0 1-1.94 11.21zm6.3-15.29l-6.77-10.63-3.13-11.73c6.05 4.77 9.4 12.29 9.9 22.37zm-52.4-22.36l-3.13 11.73-6.77 10.64c.5-10.08 3.85-17.6 9.9-22.37zm8.45 68.76l3.08-2.31 7 13.22A117.13 117.13 0 0 1 37.2 80.67zm15.47 10.91l7-13.22 3.08 2.31a117.13 117.13 0 0 1-10.08 10.91z"/></svg>