<?xml version="1.0" encoding="utf-8"?>
<svg viewBox="0 0 100 125" x="0px" xmlns="http://www.w3.org/2000/svg" y="0px"><path d="M50 11.36A38.64 38.64 0 1 0 88.64 50 38.68 38.68 0 0 0 50 11.36zm12.85 62.85L66 64.78l10.49-4.2v14.94zm-39.34 1.31V60.58L34 64.78l3.15 9.43zm13.64-49.73L34 35.22l-10.49 4.2V24.48zm39.34-1.31v14.94L66 35.22l-3.15-9.43zM64.84 63.6L50 68.16 35.16 63.6 29.5 50l5.66-13.6L50 31.84l14.84 4.56L70.5 50zM61.4 73.81l-9.4-4.7 12.21-3.75zm-22.8 0l-2.82-8.45L48 69.11zm-10-25.44l-4.68-7.48 9.36-3.74zm0 3.26l4.68 11.22-9.36-3.74zm10-25.44l9.4 4.7-12.22 3.75zm22.8 0l2.82 8.45L52 30.89zm10.05 25.44l4.68 7.48-9.36 3.74zm0-3.26l-4.68-11.22 9.36 3.74zM50 30.21L39.38 24.9 50 13.22 60.62 24.9zM22.6 41.68L27.8 50l-5.2 8.32L13.23 50zM50 69.79l10.62 5.31L50 86.78 39.38 75.1zm27.4-11.47L72.2 50l5.2-8.32L86.77 50zm1.14-17.64l6.37-3.36a36.69 36.69 0 0 1 2.19 11zm-.54-1.4V25.62a37 37 0 0 1 6.37 10.3zm-15-15l2.91-7.85a37.54 37.54 0 0 1 9.67 6.64zm-1.39-.56L51.74 12.9a37 37 0 0 1 12.76 2.9zm-23.14 0L35.5 15.8a37 37 0 0 1 12.76-2.9zm-1.47.55l-12.54-1.21a37.54 37.54 0 0 1 9.67-6.64zm-15 15l-6.37-3.36A37 37 0 0 1 22 25.62zm-.55 1.4l-8.55 7.62a36.69 36.69 0 0 1 2.19-11zm0 18.64l-6.37 3.36a36.69 36.69 0 0 1-2.19-11zm.55 1.4v13.67a37 37 0 0 1-6.37-10.3zm15 15l-2.91 7.85a37.54 37.54 0 0 1-9.67-6.64zm1.39.56l9.87 10.83a37 37 0 0 1-12.76-2.9zm23.14 0l2.97 7.93a37 37 0 0 1-12.76 2.9zm1.47-.54l12.58 1.21a37.54 37.54 0 0 1-9.67 6.64zm15-15l6.37 3.36A37 37 0 0 1 78 74.38zm.55-1.4l8.56-7.61a36.69 36.69 0 0 1-2.19 11z"/></svg>